<svg fill="none" height="80" viewBox="0 0 78 80" width="78" xmlns="http://www.w3.org/2000/svg"><g fill="#fff"><path d="m64.0156 34.7129h-49.9846c-1.7544 0-3.1816-1.4175-3.1816-3.1603v-9.4681c0-1.7428 1.4272-3.1609 3.1816-3.1609h49.9839c1.7538 0 3.1804 1.4181 3.1804 3.1609v9.4688c.0006 1.7421-1.426 3.1596-3.1797 3.1596zm-49.9846-13.3672c-.4034 0-.7441.3385-.7441.7388v9.4688c0 .4069.3339.7381.7441.7381h49.9839c.4095 0 .7429-.3312.7429-.7381v-9.4688c0-.4009-.3407-.7388-.7429-.7388z"/><path d="m57.0447 67.1491h-36.0457c-3.3772 0-6.1249-2.7298-6.1249-6.0863v-27.561c0-.6685.546-1.211 1.2188-1.211.6727 0 1.2187.5425 1.2187 1.211v27.561c0 2.0207 1.6545 3.6641 3.6874 3.6641h36.0457c2.0323 0 3.6861-1.6434 3.6861-3.6641v-27.561c0-.6685.546-1.211 1.2188-1.211.6727 0 1.2187.5425 1.2187 1.211v27.561c0 3.3565-2.747 6.0863-6.1236 6.0863z"/><path d="m39.0225 67.1491c-.6727 0-1.2187-.542-1.2187-1.2111v-32.4362c0-.6685.546-1.211 1.2187-1.211.6728 0 1.2188.5425 1.2188 1.211v32.4356c0 .6697-.5454 1.2117-1.2188 1.2117z"/><path d="m23.8113 21.3416c-3.8147-2.054-5.2382-6.8086-3.173-10.5999 2.0639-3.78945 6.8481-5.20459 10.6647-3.15424 5.814 3.12944 8.9535 11.86004 9.0839 12.23004l-2.2992.8035c-.0292-.0823-2.9621-8.2213-7.9444-10.90327-2.6355-1.41574-5.9371-.4384-7.3612 2.17687-1.4254 2.6178-.4431 5.8998 2.1913 7.3173z"/><path d="m54.2313 21.3416-1.1603-2.1303c1.2767-.6873 2.2072-1.8263 2.6216-3.2075.4137-1.3818.2608-2.8412-.4309-4.1086-.6898-1.2686-1.8354-2.19262-3.2254-2.60378-1.3906-.41116-2.858-.25978-4.134.42629-4.9822 2.68129-7.9152 10.82029-7.9444 10.90269l-2.2992-.8036c.1304-.3699 3.2693-9.1006 9.0834-12.22936 1.8476-.99429 3.9761-1.2135 5.9895-.61765 2.0152.59524 3.6745 1.93529 4.6745 3.77191 1.0012 1.836 1.2224 3.9499.6228 5.9524-.6002 2.0019-1.9488 3.652-3.7976 4.6475z"/><path d="m61.9496 50.9317h-45.8567c-.6728 0-1.2188-.5426-1.2188-1.2111s.546-1.2111 1.2188-1.2111h45.8567c.6727 0 1.2187.5426 1.2187 1.2111s-.5454 1.2111-1.2187 1.2111z"/></g></svg>