<?xml version="1.0" encoding="UTF-8"?><!DOCTYPE svg PUBLIC "-//W3C//DTD SVG 1.1//EN" "http://www.w3.org/Graphics/SVG/1.1/DTD/svg11.dtd"><svg xmlns="http://www.w3.org/2000/svg" xmlns:xlink="http://www.w3.org/1999/xlink"><symbol id="icon-cat-pro" viewBox="0 0 134 56">
  <g>
    <path d="M123.1,5.8c1.2-1.9,2.7-3.4,4.5-4.6c1-0.7,1.6-0.7,2.2,0.6c0.8,1.9,1.5,3.9,0.9,6c-0.2,0.8-0.1,1.4,0.4,2.1
    c0.6,0.8,1.1,1.6,1.6,2.3c1.3,1.9,1.8,3.9,0.9,6.2c-0.4,1-0.4,2-0.2,3.1c0.2,1,0.2,2,0,3c-0.3,1.6-1.1,2.7-2.7,3.2
    c-1.3,0.3-2.4,0.9-3.2,2c-0.2,0.3-0.5,0.5-0.9,0.5c-1.2,0.2-4.2-2.5-4.2-3.7c0-0.2,0-0.4,0-0.6c0.1-3.6-0.1-3.9-3.4-5.4
    c-0.7-0.3-1.3-0.6-1.8-1.2c-0.6-0.8-1.4-0.7-2.3-0.4c-0.8,0.4-1.4,0.9-1.3,1.9c0.3,2.4,0.4,4.8,0.3,7.3c0,0.3,0.1,0.6,0.2,0.8
    c3.1,4.5,4.3,9.8,5.8,14.9c1.2,3.9,3.4,6,7.4,6.3c0.6,0,1.3,0.2,1.9,0.3c1.8,0.3,2.9,1.5,3.4,3.2c0.7,2.1,0.3,2.6-1.8,2.6
    c-2.2,0-4.3,0-6.5,0c-0.9,0-1.6-0.2-2.3-0.8c-1-1-2.2-1.4-3.4-2c-1.3-0.6-2.6-1.3-3.4-2.6c-1.1-1.7-2.6-3.1-4-4.5
    c-2.8-2.9-5.8-5.7-8.4-8.7c-1.9-2.2-3.2-4.6-3.2-7.6c0-0.9-0.2-1.3-1.2-0.9c-0.3,0.2-0.7,0.3-1,0.3c-2.8,0-4.2,1.7-5.2,4.2
    c-0.9,2.1-2.1,4.1-3.2,6.2C88.5,40.9,88,42.4,88,44c0,2.4,0.6,3.2,2.8,4c1.4,0.5,2.7,1,3.4,2.4c0.8,1.6,0.6,2-1.1,2.1
    c-2.3,0-4.5,0-6.8,0c-0.9,0-1.5-0.3-1.9-1.1c-0.6-1-1.2-2-1.8-3c-1-1.7-1.4-3.4-0.7-5.4c0.6-1.7,0.3-3.6,0.1-5.3
    c-0.4-2.6,0-4.9,1.7-7c0.6-0.7,0.6-1-0.4-1.2c-4.1-0.8-8-2.3-11.8-4.1c0,0-0.1,0-0.1-0.1c-3.2-1.2-3.8-1-4.7,2.3
    c-0.8,2.8-1.6,5.6-2.2,8.5c-0.7,3.2,0.1,6.2,1.1,9.2c0.4,1.2,1.6,1.1,2.5,1.4c2,0.6,3.7,1.4,4.5,3.5c0.7,1.6,0.6,1.8-1.1,1.8
    c-1.7,0-3.4-0.1-5.2,0c-1.6,0.1-2.8-0.5-4.2-1.4c-4.8-3.2-6.2-8.1-6.6-13.4c-0.2-3.3-2-5.9-4.1-8.4c-0.4-0.5-0.8-0.7-1.4-0.3
    c-2.1,1.3-4.5,2.1-6.7,3c-4.8,1.8-9,4.6-12.2,8.8c-1.2,1.5-1.9,3.2-2.2,5.1c-0.3,1.8,0.2,2.6,2,3.1c1.9,0.6,2.7,1.5,2.9,3.4
    c0.1,0.8-0.2,1.2-1,1.2c-2.7,0-5.4,0-8.1,0c-0.6,0-1-0.4-1.3-0.8c-1.3-1.6-1.9-3.5-1.9-5.5c-0.1-3.5,0.3-6.9,0.9-10.3
    c0.4-2.1,1.4-3.8,3.4-4.8c5.9-2.8,9-8.1,11.8-13.6c0.6-1.1,0.1-1.3-0.9-1.2c-2.9,0.3-5.4,1.6-7.7,3.2c-3,2.1-5.7,4.6-8.3,7.1
    c-2.9,2.7-6.2,4.6-10.3,4.9C3.1,32.5-0.3,28.4,0,21.8c0.1-2.3,0.9-4.4,2.4-6.1c1.2-1.3,2.6-2,4.5-1.5c1.5,0.4,1.9,1.2,1.3,2.7
    c-0.3,0.6-0.7,1.1-1,1.7c-0.4,0.6-0.8,1.3-1,2c-1.1,3,0.4,5.1,3.5,5.4c3.3,0.3,6-1.1,8.5-3.1c3-2.4,5.7-5.2,8-8.3
    c3.7-4.8,8.5-7.3,14.4-8.1c2.3-0.3,4.3-1.3,6.5-1.9c4.1-1.2,8.3-1.9,12.7-1.8c2,0.1,3.9-0.3,5.8-1.1c4.9-2,10-2,15.1-1
    c4,0.8,8,1.8,11.9,2.8c2.2,0.5,4.7,0.3,7-0.2c4.4-1,8.9-1.9,13.4-2c3-0.1,5.9,0.4,8.6,1.7C123.6,3.9,123.6,3.9,123.1,5.8z"/>
  </g>
</symbol><symbol id="icon-cat-slim" viewBox="0 0 70 97">
  <g>
    <path d="M54.8,0c-0.1,0-0.3,0-0.4,0c-0.7,0.4-1.1,0.9-1.4,1.6c-0.6,1.1-1,2.3-1.3,3.4c-0.2,0.8-0.7,1.2-1.5,1.3
    c-2.3,0.4-4,1.7-5.2,3.7c-0.7,1.3-1.3,2.6-1.8,3.9c-1.4,3.7-2.5,7.5-3.8,11.2C38.7,27,38.6,27,36.7,27c-2.3,0-2.1-0.4-2.1,2.1
    c0,0.8,0.2,1.2,1.1,1.2c0.3,0,0.7-0.1,0.8,0.2c0.1,0.3-0.2,0.5-0.4,0.7c-1.2,1.3-2.7,2-4.3,2.4c-1.9,0.5-3.8,0.9-5.7,1.5
    c-4.7,1.6-9.1,3.8-12.6,7.6c-2.1,2.3-3.5,5-4.7,7.8C5,59.2,3.2,68.3,1.8,77.5c-0.6,4.3-1.1,8.6-1.5,13C0.2,92.7,0,94.8,0,97
    c11.1,0,22.2,0,33.3,0c0.1-0.5-0.1-0.9-0.2-1.3c-0.7-1.8-2.1-2.7-3.8-3.1c-0.7-0.2-0.8-0.4-0.4-0.9c0.7-0.9,1.2-2,1.6-3.1
    c1.6-4.8,2.3-9.8,3.1-14.8C34.2,70,35.1,66.4,37,63c1.5-2.5,3.3-4.6,5.6-6.4c0.8-0.6,0.9-0.6,1,0.4c0.1,0.7,0.1,1.4,0.2,2.2
    c0.3,4.7,0.3,9.5-0.2,14.2c-0.3,3.7-0.5,7.4-0.2,11c0.4,4.3,1.2,8.4,2.2,12.6c4.4,0,8.9,0,13.3,0c-0.3-2.2-2.1-4-4.2-4.4
    c-1.3-0.2-2.5-0.1-3.8,0.2c-0.6,0.1-0.8,0-0.9-0.6c-0.4-5.3-0.1-10.6,1-15.8c1.3-6,2.4-12.1,3.1-18.2c0.3-2.5,1-4.8,2.3-7
    c1.2-2.1,2.2-4.3,3.4-6.5c0.9-1.7,1.1-3.4,0.4-5.2c-0.3-0.7-0.5-1.4-0.9-2.1c-1-2-2-3.9-2.9-5.9c-0.5-1-0.4-1.1,0.7-1.1
    c1.6,0,1.6,0,1.7-1.6c0-0.2,0-0.4,0-0.7c0-0.7-0.3-1.1-1-1c-0.5,0-1,0-1.5,0c-0.7,0-0.9-0.3-0.7-1c0.6-2.3,2.8-4.1,5.1-4.4
    c2.2-0.3,4.4,0,6.6,0.4c0.6,0.1,1,0,1.3-0.6c0.4-1,0.8-2,1.3-3c0.2-0.4,0.2-0.8-0.1-1.1C66.6,13.2,63.1,9.4,58.4,7
    c-0.5-0.3-0.8-0.6-0.9-1.1c-0.3-1.4-0.7-2.8-1.3-4.2C55.9,1,55.6,0.4,54.8,0z"/>
  </g>
</symbol><symbol id="icon-close" viewBox="0 0 18 18"><path d="m18 1.3-1.3-1.3-7.7 7.7-7.7-7.7-1.3 1.3 7.7 7.7-7.7 7.7 1.3 1.3 7.7-7.7 7.7 7.7 1.3-1.3-7.7-7.7z"/></symbol><symbol id="icon-fb" viewBox="0 0 15 29">
<path d="M14 0.75H10.5C8.95292 0.75 7.46919 1.46024 6.37523 2.72447C5.28127 3.98871 4.66669 5.70337 4.66669 7.49127V11.536H1.16669V16.929H4.66669V27.7151H9.33335V16.929H12.8334L14 11.536H9.33335V7.49127C9.33335 7.13369 9.45627 6.79076 9.67506 6.53791C9.89386 6.28506 10.1906 6.14302 10.5 6.14302H14V0.75Z" stroke="#666666" stroke-width="1.1" stroke-linecap="round" stroke-linejoin="round"/>
</symbol><symbol id="icon-gift" viewBox="0 0 78 80"><g fill="#fff"><path d="m64.0156 34.7129h-49.9846c-1.7544 0-3.1816-1.4175-3.1816-3.1603v-9.4681c0-1.7428 1.4272-3.1609 3.1816-3.1609h49.9839c1.7538 0 3.1804 1.4181 3.1804 3.1609v9.4688c.0006 1.7421-1.426 3.1596-3.1797 3.1596zm-49.9846-13.3672c-.4034 0-.7441.3385-.7441.7388v9.4688c0 .4069.3339.7381.7441.7381h49.9839c.4095 0 .7429-.3312.7429-.7381v-9.4688c0-.4009-.3407-.7388-.7429-.7388z"/><path d="m57.0447 67.1491h-36.0457c-3.3772 0-6.1249-2.7298-6.1249-6.0863v-27.561c0-.6685.546-1.211 1.2188-1.211.6727 0 1.2187.5425 1.2187 1.211v27.561c0 2.0207 1.6545 3.6641 3.6874 3.6641h36.0457c2.0323 0 3.6861-1.6434 3.6861-3.6641v-27.561c0-.6685.546-1.211 1.2188-1.211.6727 0 1.2187.5425 1.2187 1.211v27.561c0 3.3565-2.747 6.0863-6.1236 6.0863z"/><path d="m39.0225 67.1491c-.6727 0-1.2187-.542-1.2187-1.2111v-32.4362c0-.6685.546-1.211 1.2187-1.211.6728 0 1.2188.5425 1.2188 1.211v32.4356c0 .6697-.5454 1.2117-1.2188 1.2117z"/><path d="m23.8113 21.3416c-3.8147-2.054-5.2382-6.8086-3.173-10.5999 2.0639-3.78945 6.8481-5.20459 10.6647-3.15424 5.814 3.12944 8.9535 11.86004 9.0839 12.23004l-2.2992.8035c-.0292-.0823-2.9621-8.2213-7.9444-10.90327-2.6355-1.41574-5.9371-.4384-7.3612 2.17687-1.4254 2.6178-.4431 5.8998 2.1913 7.3173z"/><path d="m54.2313 21.3416-1.1603-2.1303c1.2767-.6873 2.2072-1.8263 2.6216-3.2075.4137-1.3818.2608-2.8412-.4309-4.1086-.6898-1.2686-1.8354-2.19262-3.2254-2.60378-1.3906-.41116-2.858-.25978-4.134.42629-4.9822 2.68129-7.9152 10.82029-7.9444 10.90269l-2.2992-.8036c.1304-.3699 3.2693-9.1006 9.0834-12.22936 1.8476-.99429 3.9761-1.2135 5.9895-.61765 2.0152.59524 3.6745 1.93529 4.6745 3.77191 1.0012 1.836 1.2224 3.9499.6228 5.9524-.6002 2.0019-1.9488 3.652-3.7976 4.6475z"/><path d="m61.9496 50.9317h-45.8567c-.6728 0-1.2188-.5426-1.2188-1.2111s.546-1.2111 1.2188-1.2111h45.8567c.6727 0 1.2187.5426 1.2187 1.2111s-.5454 1.2111-1.2187 1.2111z"/></g></symbol><symbol id="icon-insta" viewBox="0 0 16.1 16">
<style type="text/css"> .st0{fill:#231F20;}
</style>
<path class="st0" d="M11.8,1C13.6,1,15,2.4,15,4.2v7.7c0,1.7-1.4,3.1-3.1,3.1H4.2C2.4,15,1,13.6,1,11.8V4.2C1,2.4,2.4,1,4.2,1H11.8 M11.8,0H4.2C1.9,0,0,1.9,0,4.2v7.7C0,14.1,1.9,16,4.2,16h7.7c2.3,0,4.2-1.9,4.2-4.2V4.2C16,1.9,14.1,0,11.8,0z"/>
<path class="st0" d="M8,4.9c1.7,0,3.1,1.4,3.1,3.1S9.7,11.1,8,11.1S4.9,9.7,4.9,8S6.3,4.9,8,4.9 M8,3.9C5.7,3.9,3.9,5.7,3.9,8 s1.8,4.1,4.1,4.1s4.1-1.8,4.1-4.1S10.3,3.9,8,3.9z"/>
<circle class="st0" cx="12.3" cy="3.7" r="0.9"/>
</symbol><symbol id="icon-mail" viewBox="0 0 17 13">
  <path d="M15.6,11.6H1.4V5.8H0V13h17V5.8h-1.4V11.6z M0,0v2.3l8.5,7.1L17,2.3V0H0z M15.6,1.6L8.5,7.5L1.4,1.6V1.4h14.2L15.6,1.6z"/>
</symbol><symbol id="icon-mobile-menu" viewBox="0 0 24 18">
  <rect y="16" width="24" height="2"/>
  <rect y="8" width="24" height="2"/>
  <rect width="24" height="2"/>
</symbol><symbol id="icon-phone" viewBox="0 0 20 20">
  <path d="M17.9,9.4H9.4v1.2h8.5l-2.1,2.1l0.9,0.9l3.1-3.1c0.2-0.2,0.2-0.6,0-0.9l-3.1-3.1l-0.9,0.9L17.9,9.4z"/>
  <path d="M8.1,19.4v-6.2c0-0.3-0.3-0.6-0.6-0.6H4.4l0,0H3.1l0,0c0,0.7,0.6,1.2,1.2,1.2h2.5v5H3.1c-1,0.1-1.8-0.7-1.9-1.7
  c0-0.1,0-0.1,0-0.2V3.1c0-1,0.8-1.8,1.7-1.8c0.1,0,0.1,0,0.2,0h3.7v5H4.4c-0.7,0-1.2,0.6-1.2,1.2h4.4c0.3,0,0.6-0.3,0.6-0.6V0.6
  C8.1,0.3,7.8,0,7.5,0H3.1C1.5-0.1,0.1,1.2,0,2.9C0,3,0,3.1,0,3.1v13.7c-0.1,1.7,1.2,3.1,2.9,3.1c0.1,0,0.2,0,0.2,0h4.4
  C7.8,20,8.1,19.7,8.1,19.4z"/>
</symbol><symbol id="icon-plus-mobile" viewBox="0 0 30 30">
  <style type="text/css">
    .st0 {
      fill: #D3D3D3;
    }
  </style>
  <polygon class="st0" points="30,14 16,14 16,0 14,0 14,14 0,14 0,16 14,16 14,30 16,30 16,16 30,16 "/>
</symbol><symbol id="icon-plus" viewBox="0 0 60 60">
  <style type="text/css">
    .st0 {
      fill: #D3D3D3;
    }
  </style>
  <polygon class="st0" points="60,29.5 30.5,29.5 30.5,0 29.5,0 29.5,29.5 0,29.5 0,30.5 29.5,30.5 29.5,60 30.5,60 30.5,30.5
  60,30.5 "/>
</symbol><symbol id="icon-right-arrow-long" viewBox="0 0 24.2 11">
  <style type="text/css">
    .st0 {
      fill: #3F4242;
    }
  </style>
  <polygon class="st0" points="17.6,0 24.2,5.5 17.6,11 17.6,6.6 0,6.6 0,4.4 17.6,4.4 "/>
</symbol><symbol id="icon-right-arrow-verylong" viewBox="0 0 32 11">
  <style type="text/css">
    .st0 {
      fill: #3F4242;
    }
  </style>
  <polygon class="st0" points="25.4,0 32,5.5 25.4,11 25.4,6.6 0,6.6 0,4.4 25.4,4.4 "/>
</symbol><symbol id="icon-tick" viewBox="0 0 19 15">
  <path d="M7 11.718L1.3 5.26951L0.25 6.45739L7 14.0938L18.25 1.36648L17.2 0.09375L7 11.718Z" fill="#68B738"/>
</symbol><symbol id="icon-vk" viewBox="0 0 22 12">
<path d="M17.6,12c-0.3,0-0.9-0.1-1.5-0.5c-0.5-0.3-0.9-0.7-1.3-1.2c-0.3-0.3-0.9-0.9-1.1-0.9c-0.2,0.1-0.4,0.7-0.3,1.2 c0,0.1,0,0.6-0.3,0.9c-0.3,0.3-0.8,0.4-0.9,0.4h-1.4c-0.7,0-3.2-0.2-5.4-2.3C2.5,7.1,0.2,2.2,0.1,2C0,1.6-0.1,1.2,0.2,0.9 s0.8-0.4,1-0.4h3.1c0.1,0,0.4,0.1,0.7,0.3C5.3,1,5.4,1.3,5.5,1.4c0.7,1.5,1.5,2.8,2.6,4C8.2,5,8.3,4,8.2,3.1c0-0.4-0.1-0.8-0.2-1 C7.9,2,7.7,1.9,7.5,1.9L6.9,1.4c0-0.5,0.5-0.9,0.9-1.1C8.3,0.1,9.1,0,10.1,0h0.5c0.9,0,1.2,0.1,1.6,0.1c1.2,0.3,1.2,1.3,1.1,2.5v1.6 c0,0.3,0,0.8,0.1,1c0.2-0.1,0.6-0.5,1.5-1.9c0.6-0.9,1-1.9,1.1-2.1c0.1-0.3,0.4-0.7,1.2-0.7h3.4c0.7,0,1.2,0.2,1.3,0.7 c0.2,0.5,0.1,1.3-1.7,3.5c-0.3,0.3-0.5,0.6-0.7,0.9c-0.5,0.4-0.9,1-0.9,1.1s0.5,0.5,0.9,0.9c1.1,0.9,1.9,1.7,2.2,2.3 c0.4,0.6,0.3,1,0.2,1.3c-0.3,0.7-1.2,0.7-1.4,0.8h-2.8C17.7,12,17.6,12,17.6,12z M13.7,8.3c0.7,0,1.2,0.6,1.8,1.2 c0.4,0.4,0.7,0.8,1.1,1c0.5,0.3,1,0.3,1,0.3h2.9c0.1,0,0.3-0.1,0.4-0.1c0,0,0-0.1-0.1-0.1c-0.3-0.5-1-1.3-2-2.1 c-0.9-0.7-1.3-1.1-1.4-1.7c0-0.6,0.4-1.1,1.2-2.1c0.2-0.2,0.4-0.5,0.7-0.8c1.1-1.4,1.4-2,1.5-2.3h-3.9c0,0.4-0.5,1.5-1.1,2.4 c-1.4,2.1-2,2.4-2.5,2.4c-0.1,0-0.3,0-0.4-0.1c-0.7-0.4-0.7-1.4-0.7-2.1V3.9V2.6c0.1-1.3,0-1.3-0.3-1.4c-0.3-0.1-0.5-0.1-1.4-0.1H10 c-0.5,0-1,0-1.4,0.1l0.2,0.2c0.4,0.5,0.4,1.5,0.4,1.7c0.1,1.3,0,2.9-0.7,3.3c-0.1,0-0.2,0.1-0.4,0.1C7.5,6.5,6.8,5.8,5.6,4 C5,2.9,4.5,1.8,4.5,1.8s0-0.1-0.1-0.1S4.2,1.6,4.2,1.6H1.3H1.2c0.4,0.9,2.5,5,4.8,7.2c2,1.9,4.3,2,4.7,2h1.4c0,0,0.2,0,0.2-0.1v-0.1 c0-0.2,0-2,1.2-2.3C13.5,8.3,13.7,8.3,13.7,8.3z"/>
</symbol></svg>